name Walk1.mot
datacolumns 19
datarows 17
range 1.07500000 1.09100000
endheader

                time	   L_ground_force_vx	   L_ground_force_vy	   L_ground_force_vz	   L_ground_force_px	   L_ground_force_py	   L_ground_force_pz	   R_ground_force_vx	   R_ground_force_vy	   R_ground_force_vz	   R_ground_force_px	   R_ground_force_py	   R_ground_force_pz	   L_ground_torque_x	   L_ground_torque_y	   L_ground_torque_z	   R_ground_torque_x	   R_ground_torque_y	   R_ground_torque_z	
          1.07500000	         -0.00000000	          0.00000000	         -0.00000000	         -0.00000000	          0.00000000	         -0.00000000	         -3.03617813	         89.99603455	          8.70652159	         -0.00284162	          0.00000000	          0.00255865	          0.00000000	         -0.00000000	          0.00000000	          0.00000000	         -0.03522666	          0.00000000	
          1.07600000	         -0.00000000	          0.00000000	         -0.00000000	         -0.00000000	          0.00000000	         -0.00000000	         -4.18496286	         98.94114317	          9.19524186	         -0.01266220	          0.00000000	          0.01753866	          0.00000000	         -0.00000000	          0.00000000	          0.00000000	         -0.04948853	          0.00000000	
          1.07700000	         -0.00000000	          0.00000000	         -0.00000000	         -0.00000000	          0.00000000	         -0.00000000	         -5.38392779	        108.14485347	          9.69212226	         -0.02244098	          0.00000000	          0.03248085	          0.00000000	         -0.00000000	          0.00000000	          0.00000000	         -0.06355406	          0.00000000	
          1.07800000	         -0.00000000	          0.00000000	          0.00000000	         -0.00000000	          0.00000000	         -0.00000000	         -6.63350664	        117.59627171	         10.19586066	         -0.03214846	          0.00000000	          0.04734208	          0.00000000	         -0.00000000	          0.00000000	          0.00000000	         -0.07736913	          0.00000000	
          1.07900000	         -0.00000000	          0.00000000	          0.00000000	         -0.00000000	          0.00000000	         -0.00000000	         -7.93405295	        127.28282846	         10.70500327	         -0.04175502	          0.00000000	          0.06207907	          0.00000000	         -0.00000000	          0.00000000	          0.00000000	         -0.09087888	          0.00000000	
          1.08000000	         -0.00000000	          0.00000000	          0.00000000	         -0.00000000	          0.00000000	         -0.00000000	         -9.28583991	        137.19019797	         11.21793549	         -0.05123154	          0.00000000	          0.07664935	          0.00000000	         -0.00000000	          0.00000000	          0.00000000	         -0.10402858	          0.00000000	
          1.08100000	         -0.00000000	         -0.00000000	          0.00000000	         -0.00000000	          0.00000000	         -0.00000000	        -10.68907846	        147.30229124	         11.73287209	         -0.06055061	          0.00000000	          0.09101309	          0.00000000	         -0.00000000	          0.00000000	          0.00000000	         -0.11676513	          0.00000000	
          1.08200000	         -0.00000000	         -0.00000000	          0.00000000	         -0.00000000	          0.00000000	         -0.00000000	        -12.14394375	        157.60130894	         12.24784894	         -0.06968721	          0.00000000	          0.10513412	          0.00000000	         -0.00000000	          0.00000000	          0.00000000	         -0.12903824	          0.00000000	
          1.08300000	         -0.00000000	         -0.00000000	          0.00000000	         -0.00000000	          0.00000000	         -0.00000000	        -13.65060296	        168.06785170	         12.76071765	         -0.07861892	          0.00000000	          0.11898019	          0.00000000	         -0.00000000	          0.00000000	          0.00000000	         -0.14080082	          0.00000000	
          1.08400000	         -0.00000000	         -0.00000000	          0.00000000	         -0.00000000	          0.00000000	         -0.00000000	        -15.20924516	        178.68111093	         13.26914360	         -0.08732584	          0.00000000	          0.13252277	          0.00000000	         -0.00000000	          0.00000000	          0.00000000	         -0.15200882	          0.00000000	
          1.08500000	         -0.00000000	         -0.00000000	          0.00000000	         -0.00000000	          0.00000000	         -0.00000000	        -16.82011126	        189.41915566	         13.77060824	         -0.09579046	          0.00000000	          0.14573692	          0.00000000	         -0.00000000	          0.00000000	          0.00000000	         -0.16262090	          0.00000000	
          1.08600000	         -0.00000000	         -0.00000000	          0.00000000	         -0.00000000	          0.00000000	         -0.00000000	        -18.48351771	        200.25931130	         14.26241683	         -0.10399761	          0.00000000	          0.15860101	          0.00000000	         -0.00000000	          0.00000000	          0.00000000	         -0.17259805	          0.00000000	
          1.08700000	         -0.00000000	         -0.00000000	          0.00000000	         -0.00000000	          0.00000000	         -0.00000000	        -20.19986741	        211.17860699	         14.74171323	         -0.11193432	          0.00000000	          0.17109664	          0.00000000	         -0.00000000	          0.00000000	          0.00000000	         -0.18190324	          0.00000000	
          1.08800000	         -0.00000000	         -0.00000001	          0.00000000	         -0.00000000	          0.00000000	         -0.00000000	        -21.96964213	        222.15425193	         15.20550295	         -0.11958969	          0.00000000	          0.18320835	          0.00000000	         -0.00000000	          0.00000000	          0.00000000	         -0.19050124	          0.00000000	
          1.08900000	         -0.00000000	         -0.00000001	          0.00000000	         -0.00000000	          0.00000000	         -0.00000000	        -23.79337477	        233.16409201	         15.65068464	         -0.12695479	          0.00000000	          0.19492346	          0.00000000	         -0.00000000	          0.00000000	          0.00000000	         -0.19835840	          0.00000000	
          1.09000000	         -0.00000000	         -0.00000001	          0.00000000	         -0.00000000	          0.00000000	         -0.00000000	        -25.67160385	        244.18700199	         16.07408905	         -0.13402252	          0.00000000	          0.20623188	          0.00000000	         -0.00000000	          0.00000000	          0.00000000	         -0.20544249	          0.00000000	
          1.09100000	         -0.00000000	         -0.00000001	          0.00000000	         -0.00000000	          0.00000000	         -0.00000000	        -27.60481610	        255.20318067	         16.47252316	         -0.14078753	          0.00000000	          0.21712593	          0.00000000	         -0.00000000	          0.00000000	          0.00000000	         -0.21172261	          0.00000000	
